<svg width="41" height="41" viewBox="0 0 41 41" fill="none" xmlns="http://www.w3.org/2000/svg">
<rect x="0.973938" y="0.478027" width="40" height="40" rx="20" fill="#F37339"/>
<path d="M25.301 26.978H16.6468C15.4509 26.978 14.4739 26.001 14.4739 24.8051V16.1509C14.4739 14.955 15.4509 13.978 16.6468 13.978H25.301C26.4969 13.978 27.4739 14.955 27.4739 16.1509V24.8051C27.4739 26.0064 26.5023 26.978 25.301 26.978Z" fill="white"/>
<path d="M20.9767 23.8176C20.0851 23.8176 19.2469 23.4705 18.6169 22.8406C17.9869 22.2106 17.6399 21.3724 17.6399 20.4808C17.6399 19.5892 17.9869 18.751 18.6169 18.121C19.2469 17.4911 20.0851 17.144 20.9767 17.144C21.8683 17.144 22.7065 17.4911 23.3364 18.121C23.9664 18.751 24.3134 19.5892 24.3134 20.4808C24.3134 21.3724 23.9664 22.2106 23.3364 22.8406C22.7011 23.4705 21.8683 23.8176 20.9767 23.8176ZM20.9767 17.8541C19.5299 17.8541 18.35 19.0286 18.35 20.4808C18.35 21.9276 19.5245 23.1075 20.9767 23.1075C22.4235 23.1075 23.6034 21.933 23.6034 20.4808C23.598 19.034 22.4235 17.8541 20.9767 17.8541Z" fill="#F37339"/>
<path d="M24.9637 17.0345C25.3175 17.0345 25.6044 16.7477 25.6044 16.3938C25.6044 16.04 25.3175 15.7532 24.9637 15.7532C24.6099 15.7532 24.323 16.04 24.323 16.3938C24.323 16.7477 24.6099 17.0345 24.9637 17.0345Z" fill="#F37339"/>
</svg>
