<svg width="41" height="41" viewBox="0 0 41 41" fill="none" xmlns="http://www.w3.org/2000/svg">
<rect x="0.973938" y="0.478027" width="40" height="40" rx="20" fill="#F37339"/>
<g clip-path="url(#clip0_1570_608)">
<path fill-rule="evenodd" clip-rule="evenodd" d="M16.6147 28.1099V17.811H13.1919V28.1099H16.6147V28.1099ZM14.9037 16.4054C16.0969 16.4054 16.8402 15.6139 16.8402 14.6256C16.8176 13.6153 16.0969 12.8462 14.926 12.8462C13.755 12.8462 12.9896 13.6154 12.9896 14.6256C12.9896 15.6139 13.7324 16.4054 14.8811 16.4054L14.9037 16.4054ZM18.5091 28.1099C18.5091 28.1099 18.554 18.7773 18.5091 17.811H21.9324V19.3046H21.9097C22.3598 18.6018 23.1707 17.5692 25.0172 17.5692C27.2698 17.5692 28.9583 19.0412 28.9583 22.2046V28.1099H25.5355V22.6003C25.5355 21.2159 25.0403 20.2712 23.8012 20.2712C22.8558 20.2712 22.2924 20.9081 22.0449 21.5237C21.9544 21.7428 21.9324 22.0506 21.9324 22.3584V28.1099H18.5091Z" fill="white"/>
</g>
<defs>
<clipPath id="clip0_1570_608">
<rect width="16" height="16" fill="white" transform="translate(12.9739 12.478)"/>
</clipPath>
</defs>
</svg>
