<svg width="34" height="26" viewBox="0 0 34 26" fill="none" xmlns="http://www.w3.org/2000/svg">
<path d="M34 4.76904C34 4.76904 34 10.1699 34 12.3495C34 14.0995 32.9491 15.6668 31.423 16.8685C29.8968 18.0702 24.8112 21.5794 24.8112 21.5794L18.6153 25.9979L0 12.747V5.25339L2.09729 6.74752L18.6061 18.5134C18.6061 18.5134 26.3282 13.076 30.1481 10.2887C30.1481 10.2887 30.8792 9.76784 31.1168 9.58963C31.8985 9.02291 32.557 8.30348 33.0526 7.47489C33.5482 6.6463 33.8705 5.72579 34 4.76904Z" fill="#1A1A1A"/>
<path d="M24.8111 5.25786C24.8111 5.25786 24.5461 5.46345 24.3998 5.55027L18.6151 9.66263L12.4192 5.24871L18.6151 0.834764C19.495 0.275123 20.5197 -0.0140157 21.5623 0.00316491C23.9704 0.00316491 25.9214 1.41052 25.9214 3.14228C25.9107 3.55639 25.805 3.9625 25.6125 4.3293C25.42 4.6961 25.1458 5.01379 24.8111 5.25786Z" fill="#1A1A1A"/>
</svg>
