<svg width="48" height="56" viewBox="0 0 48 56" fill="none" xmlns="http://www.w3.org/2000/svg">
<path d="M32.5916 18.3036C32.5916 13.7176 28.8774 10 24.2958 10C19.7142 10 16 13.7176 16 18.3036V27.4107C16 31.9966 19.7142 35.7143 24.2958 35.7143C28.8774 35.7143 32.5916 31.9966 32.5916 27.4107V18.3036Z" stroke="#EB6B00" stroke-width="2.67857"/>
<path d="M25.3662 15.3571C25.3662 14.7654 24.8869 14.2857 24.2958 14.2857C23.7046 14.2857 23.2253 14.7654 23.2253 15.3571V18.5714C23.2253 19.1632 23.7046 19.6428 24.2958 19.6428C24.8869 19.6428 25.3662 19.1632 25.3662 18.5714V15.3571Z" fill="#EB6B00"/>
<path d="M27.4992 42.5407C27.9172 42.1222 27.9172 41.4439 27.4992 41.0254C27.0812 40.607 26.4034 40.607 25.9854 41.0254L23.7147 43.2983C23.2967 43.7167 23.2967 44.3951 23.7147 44.8135C24.1327 45.2319 24.8105 45.2319 25.2285 44.8135L27.4992 42.5407Z" fill="#EB6B00"/>
<path d="M21.3062 42.5407C20.8882 42.1222 20.8882 41.4439 21.3062 41.0254C21.7242 40.607 22.402 40.607 22.82 41.0254L25.0907 43.2983C25.5088 43.7167 25.5088 44.3951 25.0907 44.8135C24.6727 45.2319 23.9949 45.2319 23.5769 44.8135L21.3062 42.5407Z" fill="#EB6B00"/>
</svg>
