<svg width="24" height="24" viewBox="0 0 24 24" fill="none" xmlns="http://www.w3.org/2000/svg">
<path fill-rule="evenodd" clip-rule="evenodd" d="M22.5303 1.46969C22.7341 1.67342 22.8031 1.97584 22.7079 2.24778L15.7079 22.2478C15.6063 22.538 15.3378 22.7369 15.0306 22.7494C14.7233 22.7619 14.4395 22.5856 14.3146 22.3046L10.4318 13.5682L1.6954 9.68538C1.41439 9.56049 1.23809 9.27671 1.25063 8.96945C1.26316 8.66219 1.46199 8.39371 1.75224 8.29213L21.7522 1.29213C22.0242 1.19695 22.3266 1.26596 22.5303 1.46969ZM11.8946 13.1661L14.9171 19.9667L20.2064 4.85428L11.8946 13.1661ZM19.1457 3.79362L4.03331 9.08297L10.8339 12.1055L19.1457 3.79362Z" fill="#2F363D"/>
</svg>
