<svg width="41" height="41" viewBox="0 0 41 41" fill="none" xmlns="http://www.w3.org/2000/svg">
<rect x="0.973938" y="0.478027" width="40" height="40" rx="20" fill="#F37339"/>
<path d="M24.0574 13.5279L23.6944 12.9556H21.4978V18.1102L21.4903 23.1451C21.4941 23.1825 21.4978 23.2237 21.4978 23.2611C21.4978 24.5217 20.4725 25.5504 19.2077 25.5504C17.9429 25.5504 16.9175 24.5254 16.9175 23.2611C16.9175 22.0005 17.9429 20.9718 19.2077 20.9718C19.4696 20.9718 19.7241 21.0204 19.9598 21.1027V18.589C19.7166 18.5479 19.4659 18.5254 19.2077 18.5254C16.5994 18.5292 14.4739 20.6538 14.4739 23.2648C14.4739 25.8758 16.5994 28.0005 19.2114 28.0005C21.8234 28.0005 23.9489 25.8758 23.9489 23.2648V17.276C24.8956 18.2224 26.1193 19.1464 27.4739 19.4419V16.872C26.0033 16.2212 24.5401 14.2985 24.0574 13.5279Z" fill="white"/>
</svg>
