<svg width="21" height="20" viewBox="0 0 21 20" fill="none" xmlns="http://www.w3.org/2000/svg">
<path d="M0.893066 8.27257C0.579816 7.98289 0.749974 7.4592 1.17367 7.40896L7.17725 6.69716C7.34993 6.67668 7.49992 6.56788 7.57275 6.40998L10.105 0.920118C10.2837 0.532683 10.8345 0.532633 11.0132 0.920069L13.5454 6.41006C13.6182 6.56796 13.7673 6.67669 13.9399 6.69717L19.9438 7.40896C20.3675 7.4592 20.5376 7.98292 20.2244 8.27261L15.786 12.3773C15.6584 12.4954 15.6014 12.6714 15.6353 12.8419L16.8132 18.7718C16.8964 19.1902 16.4511 19.5139 16.0787 19.3055L10.8034 16.3525C10.6516 16.2676 10.4668 16.2675 10.3151 16.3524L5.03919 19.3055C4.66689 19.5139 4.22105 19.1903 4.3042 18.7718L5.48248 12.8419C5.51637 12.6713 5.45944 12.4955 5.33177 12.3774L0.893066 8.27257Z" fill="#FDDB52"/>
</svg>
