<svg width="41" height="41" viewBox="0 0 41 41" fill="none" xmlns="http://www.w3.org/2000/svg">
<rect x="0.973938" y="0.478027" width="40" height="40" rx="20" fill="#F37339"/>
<path d="M28.6435 16.3612C28.5547 15.9952 28.3764 15.661 28.1269 15.3927C27.8774 15.1244 27.5657 14.9316 27.2236 14.8341C25.1497 14.5729 23.0621 14.4552 20.9739 14.4817C18.8858 14.4552 16.7982 14.5729 14.7243 14.8341C14.3822 14.9316 14.0705 15.1244 13.821 15.3927C13.5716 15.661 13.3933 15.9952 13.3043 16.3612C13.0772 17.7217 12.9667 19.1015 12.9743 20.4834C12.9663 21.8724 13.0768 23.2593 13.3043 24.6269C13.3979 24.987 13.5782 25.3145 13.8274 25.5769C14.0765 25.8393 14.3858 26.0272 14.7243 26.1219C16.7982 26.3832 18.8858 26.5009 20.9739 26.4744C23.0621 26.5009 25.1497 26.3832 27.2236 26.1219C27.5621 26.0272 27.8714 25.8393 28.1205 25.5769C28.3697 25.3145 28.5501 24.987 28.6435 24.6269C28.8711 23.2593 28.9815 21.8724 28.9735 20.4834C28.9812 19.1015 28.8707 17.7217 28.6435 16.3612ZM19.334 23.0357V17.9524L23.5238 20.4834L19.334 23.025V23.0357Z" fill="white"/>
</svg>
